<?xml version="1.0" standalone="no"?>
<!DOCTYPE svg PUBLIC "-//W3C//DTD SVG 20010904//EN"
 "http://www.w3.org/TR/2001/REC-SVG-20010904/DTD/svg10.dtd">
<svg version="1.0" xmlns="http://www.w3.org/2000/svg"
 width="1828.000000pt" height="1829.000000pt" viewBox="0 0 1828.000000 1829.000000"
 preserveAspectRatio="xMidYMid meet">

<g transform="translate(0.000000,1829.000000) scale(0.100000,-0.100000)"
fill="#000000" stroke="none">
<path d="M0 9145 l0 -9145 9140 0 9140 0 0 9145 0 9145 -9140 0 -9140 0 0
-9145z m9580 7789 c7 -7 27 -8 58 -3 26 4 99 8 163 8 142 1 530 -26 565 -39
14 -6 41 -10 61 -10 47 0 166 -21 177 -32 6 -4 24 -8 40 -8 48 0 226 -20 276
-31 52 -12 160 -58 160 -69 0 -4 16 -10 36 -13 20 -3 44 -13 53 -21 11 -10 49
-15 126 -18 88 -3 118 -8 152 -26 22 -12 43 -26 45 -32 2 -6 57 -20 123 -31
66 -11 124 -25 129 -30 6 -5 25 -9 42 -9 40 0 248 -72 284 -98 14 -10 40 -24
58 -31 17 -8 32 -17 32 -22 0 -5 5 -9 12 -9 7 0 58 -18 114 -40 63 -24 119
-40 145 -40 35 0 52 -8 99 -44 64 -50 94 -65 198 -97 40 -12 100 -38 133 -58
79 -48 177 -128 184 -150 5 -16 19 -20 81 -23 71 -3 78 -6 105 -36 20 -23 44
-36 80 -44 29 -7 54 -19 60 -30 6 -12 21 -18 44 -18 27 0 40 -8 69 -41 19 -23
33 -46 30 -50 -3 -5 5 -9 18 -9 46 0 123 -47 183 -111 44 -46 88 -80 164 -122
239 -134 442 -288 831 -632 224 -199 500 -499 500 -545 0 -9 31 -42 69 -73 65
-54 134 -128 227 -242 70 -85 247 -338 248 -355 1 -8 22 -44 47 -80 26 -36 69
-101 96 -145 26 -44 53 -87 58 -96 6 -9 33 -47 62 -85 29 -38 76 -114 104
-169 28 -55 61 -116 73 -135 11 -19 29 -66 39 -105 21 -84 58 -166 136 -300
86 -147 126 -231 151 -315 13 -44 34 -88 51 -108 33 -37 55 -85 65 -140 3 -20
45 -156 93 -302 48 -146 98 -302 112 -347 13 -46 29 -83 36 -83 11 0 22 -29
52 -145 14 -52 14 -178 1 -170 -15 9 -12 -2 6 -30 9 -14 14 -34 11 -45 -3 -11
-1 -20 3 -20 5 0 22 -26 39 -57 42 -76 82 -339 81 -521 -1 -99 2 -123 14 -128
20 -8 27 -56 29 -222 2 -131 4 -145 22 -158 19 -14 20 -29 23 -313 2 -174 0
-326 -6 -364 -8 -50 -7 -87 3 -153 9 -51 11 -93 6 -103 -9 -16 -37 -243 -86
-701 -54 -497 -93 -695 -205 -1030 -56 -166 -84 -267 -95 -345 -13 -82 -26
-126 -50 -175 -19 -36 -54 -123 -79 -193 -25 -71 -63 -162 -85 -203 -31 -57
-41 -87 -41 -121 0 -38 -14 -72 -76 -192 -127 -242 -415 -772 -451 -829 -43
-68 -82 -92 -151 -92 l-53 0 36 -47 c20 -26 34 -54 32 -63 -4 -16 -137 -202
-285 -398 -100 -133 -231 -276 -271 -293 -19 -9 -40 -36 -69 -93 -23 -45 -65
-111 -92 -148 -59 -78 -330 -342 -369 -359 -14 -7 -35 -26 -46 -43 -11 -17
-29 -35 -40 -41 -11 -5 -60 -52 -110 -104 -132 -138 -140 -145 -265 -241 -63
-48 -126 -100 -139 -114 -14 -14 -29 -26 -35 -26 -6 0 -22 -17 -36 -38 -14
-20 -36 -46 -50 -57 -14 -11 -35 -31 -47 -44 -13 -13 -23 -21 -23 -16 0 4 -16
-7 -36 -24 -19 -17 -76 -52 -127 -77 -96 -48 -148 -89 -173 -136 -9 -17 -23
-28 -35 -28 -28 0 -54 -15 -122 -72 -32 -26 -66 -49 -75 -50 -9 -1 -25 -2 -34
-3 -9 0 -48 -24 -85 -52 -128 -95 -372 -229 -398 -219 -6 2 -17 -4 -23 -14
-18 -30 -97 -79 -169 -106 -94 -35 -185 -75 -203 -89 -19 -15 -98 -35 -115
-29 -7 3 -22 -8 -34 -25 -40 -56 -192 -111 -219 -78 -11 13 -52 156 -52 182 0
7 68 41 150 75 83 34 150 68 150 75 0 7 19 15 45 18 25 2 54 12 64 21 10 9 23
16 29 16 6 0 85 33 177 74 91 41 165 71 165 68 0 -4 4 -2 8 4 11 19 221 155
278 181 28 12 62 24 76 25 16 1 32 12 41 28 9 14 48 46 87 70 108 68 153 100
227 162 37 31 145 105 239 166 143 91 223 153 485 378 300 257 321 277 474
458 88 104 195 227 238 274 42 46 77 88 77 93 0 5 6 9 14 9 20 0 56 48 56 75
0 12 6 22 14 22 29 0 89 48 124 100 20 31 49 74 65 96 15 23 27 50 27 61 0 10
23 43 51 73 27 29 61 77 75 107 17 37 37 62 61 77 41 26 73 73 73 110 0 18 6
28 18 31 14 4 21 18 25 53 6 38 14 54 43 79 30 26 36 38 37 71 0 30 9 51 34
82 59 73 129 196 236 409 58 115 125 240 151 278 25 38 46 76 46 86 0 9 11 39
25 66 14 27 25 65 25 84 0 38 33 102 51 98 11 -3 41 70 61 147 5 22 36 121 69
221 48 146 59 194 59 246 0 48 4 69 16 79 11 9 14 22 10 43 -4 20 -3 26 3 17
14 -22 57 80 100 244 57 211 74 301 120 630 23 159 52 339 65 400 12 60 24
128 24 150 1 22 10 96 20 165 9 69 16 160 14 203 -1 43 1 76 5 74 12 -8 7 528
-6 616 -6 43 -11 100 -11 127 0 26 -22 206 -50 400 -30 210 -51 404 -54 479
-2 69 -8 135 -12 146 -4 11 -15 41 -25 66 -10 26 -18 55 -17 65 0 11 -14 56
-31 102 -17 45 -34 106 -37 135 -4 28 -15 85 -25 126 -11 41 -19 84 -19 97 0
13 -5 26 -10 29 -6 4 -8 10 -5 15 3 5 -17 62 -44 127 -27 65 -86 222 -131 348
-152 429 -212 564 -429 973 -56 104 -101 198 -101 209 0 39 -57 102 -108 119
-1 0 -4 24 -6 53 -5 58 -15 75 -58 97 -15 8 -28 20 -28 27 0 6 -9 23 -19 36
-10 13 -16 32 -14 42 3 11 -17 39 -60 84 -50 52 -66 75 -71 106 -5 31 -24 59
-95 136 -49 54 -118 132 -153 173 -35 41 -91 97 -124 123 -71 58 -127 137
-145 208 -13 49 -24 61 -249 274 -402 380 -870 792 -942 829 -20 10 -49 31
-65 46 -34 33 -65 50 -91 50 -22 0 -57 34 -48 48 3 6 -24 24 -60 42 -36 17
-74 39 -86 48 -11 9 -40 33 -64 54 -24 20 -57 39 -74 43 -16 4 -30 10 -30 15
0 4 -13 13 -30 20 -16 7 -30 18 -30 25 0 7 -13 18 -28 24 -15 6 -55 30 -87 51
-33 22 -68 40 -78 40 -10 0 -16 3 -14 8 6 9 -19 33 -27 25 -3 -3 -90 37 -193
90 -413 210 -750 356 -1078 466 -204 68 -529 161 -590 168 -27 3 -52 9 -55 12
-14 18 -244 58 -675 116 -836 112 -731 104 -1150 95 -366 -8 -485 -18 -619
-54 -30 -7 -60 -10 -68 -5 -8 5 -97 -2 -204 -16 -104 -13 -242 -29 -306 -34
-144 -14 -260 -37 -493 -101 -111 -30 -190 -47 -207 -43 -42 8 -116 -6 -136
-26 -20 -22 -200 -81 -438 -145 -251 -67 -360 -108 -549 -206 -94 -49 -274
-138 -400 -198 -295 -139 -368 -180 -665 -377 -533 -353 -1008 -728 -1382
-1091 -103 -100 -138 -122 -138 -88 0 9 -20 40 -44 68 -46 54 -48 75 -9 118 9
10 21 28 27 40 6 12 31 37 56 56 25 19 45 42 45 51 0 10 9 16 25 16 19 0 32
13 60 58 22 38 46 63 65 71 17 7 57 36 89 64 32 28 67 54 77 57 11 4 28 24 39
46 11 21 28 39 37 39 25 0 124 90 140 127 7 19 18 31 22 28 27 -16 110 45 131
96 8 18 24 32 45 39 52 17 143 80 237 163 47 43 93 77 102 77 29 0 59 20 112
73 63 64 107 97 128 97 34 0 86 30 96 55 6 17 27 33 67 51 32 14 61 32 66 40
5 8 13 12 18 9 12 -8 97 41 194 111 42 30 79 54 82 54 3 0 36 14 72 31 102 49
1190 485 1251 503 30 8 90 20 133 26 58 7 87 17 112 36 67 51 274 104 350 90
27 -5 48 1 109 34 69 36 84 40 149 40 41 0 78 5 84 11 6 6 30 13 53 15 22 2
81 11 131 19 49 9 93 14 97 11 5 -3 52 -1 105 4 72 7 110 16 149 36 56 29 121
37 433 53 227 12 761 9 775 -5z m-40 -1884 c243 -16 622 -61 665 -80 11 -4 44
-11 74 -14 29 -3 58 -12 65 -19 7 -10 44 -17 116 -21 241 -14 483 -76 910
-233 238 -87 385 -150 582 -248 290 -144 488 -256 517 -294 14 -18 38 -48 52
-65 20 -23 24 -34 15 -42 -6 -5 -18 -20 -26 -32 l-15 -22 -45 30 c-80 55 -302
185 -430 252 -303 160 -739 336 -1098 443 -65 19 -148 46 -187 59 -38 14 -117
30 -175 36 -58 6 -190 32 -295 57 -104 24 -235 50 -290 56 -135 15 -1102 15
-1302 0 -150 -12 -558 -90 -901 -174 -270 -66 -658 -213 -998 -379 -355 -173
-616 -332 -939 -573 -221 -166 -290 -223 -463 -392 -371 -360 -720 -793 -987
-1225 -86 -140 -167 -264 -179 -275 -12 -12 -21 -26 -19 -32 2 -6 -61 -154
-141 -329 -79 -176 -162 -364 -184 -419 -155 -392 -291 -988 -349 -1535 -17
-163 -22 -520 -15 -1035 3 -168 6 -199 27 -266 34 -108 54 -217 64 -339 7 -87
15 -123 49 -211 23 -59 84 -248 136 -421 135 -449 175 -545 352 -843 58 -99
152 -265 208 -369 81 -151 129 -226 242 -375 166 -220 211 -286 252 -366 18
-37 54 -83 93 -120 35 -33 218 -207 406 -388 l341 -328 -24 -44 c-24 -43 -26
-43 -57 -33 -52 18 -90 48 -256 202 -249 232 -600 611 -582 629 7 7 -7 28 -46
71 -148 159 -385 484 -512 700 -67 115 -211 402 -205 409 3 3 -8 14 -25 26
-35 25 -89 128 -98 186 -3 22 -12 44 -20 48 -28 17 -73 129 -141 352 -113 368
-183 615 -180 633 1 9 -4 28 -11 41 -7 12 -10 33 -7 45 3 11 -10 89 -29 171
-47 204 -74 362 -64 372 5 5 0 76 -11 158 -33 260 -43 471 -37 775 7 367 32
593 103 950 88 442 267 1003 430 1349 56 117 199 361 213 361 4 0 13 19 20 43
7 23 36 85 63 137 28 52 70 130 93 173 23 43 55 92 72 110 16 18 35 43 42 56
7 13 26 38 42 55 16 17 96 121 178 231 190 256 327 419 510 607 204 210 530
493 547 475 4 -3 41 24 83 61 281 248 597 433 1196 699 286 127 624 233 747
233 18 0 47 9 63 21 104 71 191 96 380 110 77 5 162 17 188 26 32 10 52 12 59
5 6 -6 27 -5 61 4 294 76 703 108 1087 84z m-6360 -1566 c64 -43 68 -90 11
-143 -21 -20 -50 -59 -64 -87 -28 -56 -51 -79 -67 -69 -5 3 -10 -1 -10 -9 0
-9 -47 -98 -104 -198 -209 -369 -355 -660 -476 -951 -74 -180 -285 -797 -304
-891 -15 -73 -39 -278 -34 -293 1 -4 -11 -35 -27 -68 -20 -41 -31 -79 -33
-122 -3 -41 -9 -63 -17 -63 -6 0 -20 -9 -30 -20 -16 -18 -18 -43 -20 -223 -1
-124 -9 -246 -19 -317 -9 -63 -23 -185 -31 -270 -8 -85 -20 -195 -27 -245 -13
-103 -14 -595 0 -810 5 -77 5 -144 2 -148 -4 -5 -1 -31 8 -60 10 -36 12 -55 4
-67 -6 -10 -7 -22 -1 -31 18 -29 31 -119 20 -133 -8 -10 -8 -22 -1 -40 15 -40
53 -247 51 -281 0 -16 6 -52 14 -80 30 -106 107 -473 110 -532 5 -70 36 -171
95 -302 28 -61 42 -108 44 -144 2 -29 8 -62 13 -72 6 -11 20 -40 32 -65 11
-25 25 -52 30 -60 16 -25 23 -52 27 -102 6 -66 20 -97 49 -108 18 -7 25 -17
25 -37 0 -16 3 -45 6 -66 5 -29 3 -37 -9 -37 -8 0 -25 -8 -38 -19 -12 -10 -31
-16 -41 -13 -60 15 -247 532 -356 987 -111 460 -141 633 -147 850 -2 75 -11
156 -20 193 -9 34 -13 66 -10 72 3 5 -1 42 -9 82 -8 40 -17 118 -20 173 -3 55
-10 147 -15 205 -25 253 -9 688 38 1073 11 89 25 223 31 297 6 74 20 196 31
270 11 74 20 160 22 191 1 35 6 55 13 52 11 -4 53 180 76 332 7 44 17 85 24
90 6 6 55 141 108 300 175 519 264 744 417 1046 49 96 89 183 89 192 0 23 29
67 44 67 6 0 39 55 73 123 71 140 127 230 188 303 24 27 55 79 69 113 37 92
73 149 104 165 34 19 33 19 62 0z m11192 -1306 c26 -51 131 -255 234 -453 134
-260 186 -369 185 -391 -2 -48 35 -137 74 -180 19 -21 35 -48 35 -60 0 -12 16
-84 36 -161 54 -210 54 -208 84 -373 27 -150 28 -156 10 -175 -9 -11 -23 -30
-29 -43 l-12 -22 -38 20 c-69 35 -81 59 -81 167 0 78 -6 117 -39 237 -147 531
-356 1005 -624 1408 -18 26 -18 26 10 40 15 7 29 22 31 34 2 17 23 29 72 43 3
0 27 -41 52 -91z m-2502 -2448 c18 -18 20 -33 20 -190 l0 -170 170 0 c123 0
172 -3 180 -12 93 -113 131 -162 134 -181 3 -12 7 -138 9 -279 4 -282 7 -268
-57 -268 -62 0 -64 9 -68 270 -3 261 -8 282 -71 320 -75 46 -221 9 -269 -68
-22 -35 -23 -49 -28 -264 -5 -248 -6 -250 -66 -263 -59 -12 -60 -6 -70 302 -9
290 -9 678 1 750 4 24 13 50 21 58 22 21 70 19 94 -5z m792 -182 c7 -126 46
-172 147 -171 58 1 61 -1 76 -30 8 -16 15 -31 15 -32 0 -1 -52 -24 -115 -50
l-115 -47 0 -154 c0 -178 11 -242 46 -275 23 -22 36 -24 129 -27 96 -4 105 -6
119 -27 41 -62 25 -97 -50 -109 -23 -3 -61 -15 -85 -26 -24 -11 -63 -20 -86
-20 -36 0 -46 5 -72 37 -44 54 -115 222 -100 239 8 9 10 59 7 156 -5 159 -18
209 -74 293 l-33 50 24 14 c23 14 45 73 45 120 0 12 6 20 12 19 8 -2 17 18 24
52 7 30 13 56 13 58 1 1 16 2 35 2 l34 0 4 -72z m-6240 45 c24 -27 32 -62 29
-129 -2 -76 10 -89 73 -81 56 8 120 -12 124 -39 6 -33 16 -34 87 -15 l70 20
28 -27 c30 -28 75 -114 128 -245 17 -43 49 -101 71 -128 l40 -51 25 24 c39 35
72 93 119 206 24 57 59 127 78 155 33 50 84 97 104 97 18 0 39 -45 45 -95 4
-37 12 -55 32 -72 35 -31 41 -29 64 16 26 49 72 96 125 124 36 19 56 22 156
22 143 -1 209 -19 273 -75 59 -52 92 -124 112 -239 13 -72 14 -99 4 -133 -6
-24 -14 -72 -18 -108 l-6 -64 -77 -53 c-149 -100 -294 -119 -430 -56 -135 63
-208 168 -216 313 -4 62 -1 85 11 104 16 24 15 25 -19 55 -42 37 -44 37 -72 8
-22 -23 -188 -382 -278 -601 -41 -100 -59 -130 -108 -183 -50 -54 -63 -63 -93
-63 -35 0 -83 36 -83 63 0 13 86 144 120 182 54 60 63 143 24 202 -10 16 -20
42 -21 58 -6 62 -36 128 -78 172 -36 37 -44 53 -50 99 -4 37 -13 58 -26 68
-13 9 -16 15 -8 18 15 5 -21 78 -53 108 -26 24 -66 26 -94 5 -13 -10 -44 -14
-95 -15 l-77 0 -6 -63 c-11 -102 -5 -348 10 -384 13 -32 14 -33 76 -32 69 0
127 -14 140 -33 13 -22 9 -70 -9 -90 -13 -15 -32 -18 -108 -18 -80 0 -98 3
-146 28 -41 20 -60 38 -79 72 -23 42 -25 57 -31 250 -7 213 -18 275 -60 348
l-19 34 28 33 c23 25 32 49 40 104 14 92 32 121 76 121 19 0 39 -7 48 -17z
m3853 -213 c40 -15 212 -156 244 -200 16 -22 34 -61 40 -86 l12 -47 -48 -45
c-32 -29 -57 -44 -73 -44 -109 4 -216 -1 -221 -9 -3 -5 -58 -11 -122 -12 -63
-1 -118 -5 -122 -9 -11 -11 5 -48 21 -48 8 0 14 -8 14 -19 0 -32 81 -97 137
-110 42 -10 66 -10 144 4 164 29 183 31 176 11 -4 -10 -7 -34 -7 -55 l0 -37
-77 -25 c-64 -20 -99 -24 -193 -24 -102 0 -121 3 -165 25 -27 13 -70 45 -95
70 -53 52 -116 160 -100 170 7 4 10 49 9 117 l-1 110 60 84 c66 93 127 153
176 175 36 16 153 18 191 4z m969 -1 c27 5 91 5 149 0 56 -4 119 -8 139 -9 28
0 40 -6 49 -21 6 -12 15 -106 20 -213 5 -105 14 -262 20 -349 8 -122 8 -169
-1 -210 -30 -126 -90 -209 -179 -251 -39 -18 -65 -21 -166 -21 -111 0 -124 2
-171 27 -53 28 -93 68 -120 120 -37 71 18 74 146 9 41 -21 89 -41 107 -44 51
-10 126 18 180 67 47 43 48 44 48 105 -1 33 -6 66 -11 71 -8 8 -34 5 -89 -9
-87 -23 -194 -27 -246 -10 -50 17 -120 71 -173 133 l-47 55 -5 131 c-8 191 4
227 114 331 60 57 91 79 110 80 15 0 36 4 47 8 11 5 23 4 26 0 3 -5 26 -5 53
0z m-6194 -29 c37 -21 46 -31 48 -57 5 -47 -16 -54 -129 -43 -137 14 -147 13
-174 -15 -32 -31 -34 -91 -5 -128 21 -26 60 -41 190 -72 110 -27 174 -85 200
-184 11 -40 9 -46 -16 -83 -115 -166 -379 -209 -519 -86 -62 55 -69 70 -44 96
34 37 64 37 138 3 77 -35 166 -42 226 -17 41 18 79 81 56 95 -15 10 -242 83
-310 101 -86 23 -128 100 -118 217 5 70 39 139 83 168 38 25 104 34 224 32 91
-2 111 -6 150 -27z m313 21 c50 -19 53 -30 44 -142 -8 -100 -2 -497 8 -507 9
-9 120 54 166 96 120 108 118 231 -6 416 -49 72 -55 87 -46 105 13 24 52 27
116 10 49 -13 75 -37 126 -111 24 -35 47 -58 58 -58 18 0 49 31 134 134 24 29
50 49 74 55 35 10 89 5 98 -9 3 -4 -45 -83 -106 -175 l-110 -168 25 -51 c14
-28 50 -80 80 -116 149 -176 169 -201 160 -210 -5 -4 -34 -13 -64 -18 -30 -6
-63 -14 -72 -17 -13 -5 -18 -2 -18 9 0 9 -11 28 -25 42 -13 13 -25 28 -25 32
0 4 -39 57 -87 117 l-87 110 -8 -44 c-4 -24 -20 -62 -35 -84 -16 -22 -40 -58
-54 -81 -32 -52 -82 -86 -125 -86 -19 0 -66 14 -106 32 -49 22 -73 29 -76 20
-2 -6 -12 -22 -21 -34 -17 -20 -21 -21 -60 -10 -31 10 -42 19 -47 39 -11 43 6
685 18 700 12 15 37 17 71 4z m4234 -34 c66 -34 117 -101 145 -191 44 -140 -4
-218 -119 -197 -26 5 -75 7 -108 6 -149 -8 -243 -19 -273 -31 -31 -13 -33 -15
-26 -51 16 -90 62 -124 176 -131 56 -4 81 1 153 27 76 27 165 41 165 26 0 -15
-41 -83 -62 -102 -12 -12 -50 -34 -82 -49 -186 -85 -443 0 -528 174 -84 174
40 467 227 537 29 10 73 14 160 12 108 -3 125 -5 172 -30z m3548 17 c48 -23
81 -79 130 -225 44 -134 79 -200 115 -219 18 -10 27 -6 61 28 21 22 39 49 39
61 0 31 29 98 74 171 22 36 52 94 66 130 26 62 28 65 65 68 49 4 95 -15 95
-40 0 -34 -38 -131 -98 -250 -33 -64 -63 -135 -67 -157 -4 -23 -11 -41 -15
-41 -5 0 -12 -10 -15 -21 -4 -12 -19 -42 -34 -65 -19 -33 -32 -44 -51 -44 -14
0 -31 -4 -39 -9 -7 -5 -26 -60 -41 -122 -33 -133 -52 -191 -75 -216 -9 -10
-24 -29 -34 -42 -24 -32 -65 -23 -79 18 -8 24 -5 45 19 113 34 99 36 157 7
218 -11 25 -20 56 -19 70 1 14 -9 61 -22 105 -20 71 -26 82 -58 99 -30 17 -38
28 -56 90 -11 39 -36 109 -56 156 -49 120 -51 128 -30 133 38 10 86 6 118 -9z
m-4491 -4 c152 -11 213 -38 246 -104 26 -55 40 -203 40 -443 l0 -173 -42 0
c-24 0 -49 4 -56 8 -25 16 -32 80 -32 277 0 188 -1 204 -22 245 -32 62 -74 84
-163 85 -89 0 -141 -24 -170 -81 -18 -35 -20 -62 -23 -287 l-3 -248 -52 3
c-49 3 -53 5 -75 46 -14 25 -19 42 -12 42 8 0 11 43 10 153 -1 83 -1 222 -1
308 1 151 2 156 24 167 28 13 174 14 331 2z m2103 -2 c16 -20 24 -66 13 -73
-11 -7 -12 -201 -2 -389 4 -66 3 -148 -3 -183 l-9 -63 -46 0 c-83 0 -80 -14
-79 325 0 165 3 321 6 348 l5 47 53 0 c30 0 57 -5 62 -12z m-9109 -805 l27
-288 -22 -65 c-12 -36 -22 -90 -22 -121 -1 -53 1 -59 34 -88 20 -17 39 -31 44
-31 17 0 34 -63 57 -215 13 -88 31 -177 39 -197 8 -21 29 -106 46 -190 36
-178 58 -242 105 -303 18 -25 31 -51 28 -59 -11 -29 26 -257 50 -304 16 -33
22 -59 19 -87 -4 -35 0 -46 33 -87 30 -37 38 -55 39 -90 0 -45 22 -81 95 -163
27 -30 35 -63 46 -188 4 -52 22 -93 64 -147 15 -19 44 -68 65 -108 21 -41 48
-80 61 -88 17 -12 24 -29 29 -74 5 -40 17 -74 37 -107 17 -26 71 -122 120
-213 93 -170 147 -256 205 -324 18 -22 33 -43 33 -48 0 -12 242 -388 304 -472
82 -110 185 -225 249 -276 31 -25 56 -52 57 -60 0 -17 172 -217 398 -463 79
-87 143 -159 141 -160 -54 -36 -119 -91 -119 -100 0 -9 -2 -9 -8 1 -6 9 -20 6
-58 -13 -61 -32 -89 -27 -104 20 -12 36 -55 79 -90 90 -11 3 -20 12 -20 18 0
14 -66 79 -127 126 -24 18 -43 37 -43 43 0 21 -216 262 -270 302 -31 22 -63
57 -73 76 -9 19 -78 116 -152 215 -74 99 -135 187 -135 195 -1 22 -23 48 -52
59 -19 7 -25 17 -26 39 -1 42 -28 91 -57 104 -14 6 -28 20 -31 32 -4 12 -15
33 -25 48 -11 14 -19 32 -19 39 0 31 -42 98 -70 109 -29 12 -44 41 -56 105 -7
37 -52 125 -64 125 -20 0 -50 41 -50 68 0 29 -7 45 -64 137 -29 47 -36 68 -33
95 3 27 -6 53 -39 115 -23 44 -73 148 -109 230 -36 83 -78 162 -93 178 -18 19
-28 43 -33 80 -9 68 -40 151 -69 182 -14 14 -33 62 -50 122 -64 235 -86 309
-142 488 -33 105 -82 258 -109 341 -45 135 -50 163 -53 254 -2 63 -7 105 -15
109 -16 10 -41 190 -30 219 14 36 11 60 -10 81 -23 23 -31 65 -36 193 -2 57
-8 148 -15 203 -11 94 -10 105 10 164 24 73 20 112 -16 138 -21 16 -24 28 -30
119 l-7 102 31 16 c31 16 144 46 150 40 2 -1 16 -132 30 -291z m13489 110 c15
-109 7 -369 -16 -507 -23 -136 -117 -540 -177 -758 -223 -812 -700 -1657
-1340 -2370 -379 -422 -881 -825 -1394 -1119 -177 -101 -563 -291 -599 -294
-14 -1 -64 -20 -111 -43 -47 -22 -98 -44 -115 -48 -16 -4 -42 -16 -58 -26 -24
-17 -154 -55 -212 -62 -11 -1 -39 -15 -62 -30 -23 -15 -46 -25 -51 -22 -6 3
-32 -5 -59 -19 -38 -20 -80 -30 -178 -41 -71 -8 -131 -17 -134 -19 -2 -3 -10
0 -17 6 -10 8 -21 3 -46 -22 -52 -52 -104 -69 -241 -80 -67 -5 -189 -23 -272
-39 -82 -17 -227 -39 -322 -49 -157 -17 -175 -21 -203 -45 -38 -32 -87 -34
-144 -7 -35 17 -78 21 -298 30 -555 23 -983 94 -1463 243 -98 30 -561 196
-737 263 -26 10 -22 25 17 70 l34 40 138 -47 c76 -26 276 -94 444 -151 169
-58 374 -121 455 -140 180 -44 751 -141 924 -158 203 -19 454 -3 985 65 148
20 338 42 420 51 119 13 179 25 290 60 77 24 179 51 226 59 54 10 120 32 175
58 49 23 120 47 157 54 43 8 120 38 207 80 77 36 159 68 182 72 24 3 65 20 93
37 27 18 142 77 255 133 531 260 967 578 1420 1031 391 391 657 735 955 1232
424 708 664 1441 750 2289 8 85 18 168 21 183 6 27 66 97 84 97 5 0 12 -26 17
-57z m-10442 -5373 c81 -62 218 -190 203 -190 -22 0 -153 47 -203 73 -79 42
-182 146 -224 225 l-33 63 84 -51 c45 -28 124 -82 173 -120z m266 -239 c30
-10 78 -30 108 -45 47 -24 347 -223 459 -303 23 -17 58 -34 77 -37 20 -4 66
-27 103 -50 84 -54 173 -99 381 -192 203 -91 211 -96 211 -135 0 -52 -32 -50
-215 18 -197 73 -800 426 -1060 620 -89 66 -109 87 -119 121 -9 27 -12 26 55
3z m7372 -737 c20 -4 37 -11 37 -16 0 -4 -18 -28 -40 -52 -41 -44 -55 -50
-282 -113 -38 -10 -5 84 39 113 26 16 179 74 198 74 6 0 27 -3 48 -6z m-596
-295 c-3 -22 -8 -43 -10 -46 -19 -19 -524 -156 -539 -147 -7 4 -25 8 -42 8
-16 1 -31 7 -34 15 -3 10 2 11 19 6 19 -5 21 -4 9 4 -8 6 -25 11 -37 11 -19 0
-22 -4 -17 -28 l6 -27 -160 -53 c-213 -71 -319 -92 -463 -92 -116 0 -233 16
-224 31 7 11 151 43 380 84 110 20 245 48 300 62 55 14 118 27 140 29 22 1
121 32 221 68 215 77 341 111 423 115 l34 1 -6 -41z m-1885 -541 c37 1 53
-171 18 -188 -45 -22 -140 -32 -357 -37 l-242 -6 -6 24 c-3 13 -5 60 -3 104
l3 80 70 7 c143 15 372 26 435 21 36 -3 73 -5 82 -5z m-398 -449 c29 -16 29
-16 -80 -32 -170 -25 -313 -30 -524 -17 -255 15 -337 25 -357 41 -23 20 115
26 567 25 316 -1 369 -3 394 -17z"/>
<path d="M7737 9235 c-52 -18 -83 -49 -104 -104 -32 -84 -16 -211 39 -312 26
-47 89 -69 195 -69 83 0 132 17 157 54 18 28 42 113 51 178 14 98 -44 210
-130 249 -48 22 -153 24 -208 4z"/>
<path d="M7450 9185 c0 -9 6 -12 15 -9 8 4 12 10 9 15 -8 14 -24 10 -24 -6z"/>
<path d="M10137 9240 c-65 -20 -122 -88 -142 -170 l-6 -25 88 0 c48 0 104 -2
123 -3 70 -6 179 13 201 35 l21 20 -20 39 c-24 47 -67 89 -105 103 -33 13
-120 13 -160 1z"/>
<path d="M11155 9231 c-85 -38 -149 -144 -148 -246 0 -71 23 -122 80 -177 110
-106 258 -87 354 45 27 38 29 46 29 136 0 112 -17 159 -73 208 -58 51 -170 67
-242 34z"/>
<path d="M9310 9235 c-53 -24 -88 -63 -110 -122 -11 -30 -20 -55 -20 -57 0 -5
232 -20 323 -21 103 0 112 6 103 68 -9 56 -37 102 -77 123 -46 23 -175 29
-219 9z"/>
</g>
</svg>
